# Blender 4.4.3
# www.blender.org
o Cube
v 2.000000 -1.000000 0.200000
v 2.000000 1.000000 0.200000
v 2.000000 -1.000000 -0.200000
v 2.000000 1.000000 -0.200000
v -2.000000 -1.000000 0.200000
v -2.000000 1.000000 0.200000
v -2.000000 -1.000000 -0.200000
v -2.000000 1.000000 -0.200000
v 1.239778 0.000000 0.200000
v -2.760221 0.000000 -0.200000
v 1.239778 0.000000 -0.200000
v -2.760221 0.000000 0.200000
v -0.308145 1.000000 0.200000
v -1.127569 1.000000 0.200000
v -1.127569 1.000000 -0.200000
v -0.308145 1.000000 -0.200000
v -0.308145 -1.000000 0.200000
v -1.127569 -1.000000 0.200000
v -0.308145 -1.000000 -0.200000
v -1.127569 -1.000000 -0.200000
v -0.308145 -0.754205 -0.200000
v -1.127569 -0.754205 -0.200000
v -1.127569 -0.754205 0.200000
v -0.308145 -0.754205 0.200000
vn -0.7961 -0.6052 -0.0000
vn -0.0000 1.0000 -0.0000
vn 0.7961 0.6052 -0.0000
vn 0.7961 -0.6052 -0.0000
vn -0.7961 0.6052 -0.0000
vn -0.0000 -1.0000 -0.0000
vn -0.0000 -0.0000 1.0000
vn 1.0000 -0.0000 -0.0000
vn -1.0000 -0.0000 -0.0000
vn -0.0000 -0.0000 -1.0000
vt 0.625000 0.000000
vt 0.500000 0.250000
vt 0.500000 0.000000
vt 0.375000 0.500000
vt 0.291667 0.750000
vt 0.291667 0.500000
vt 0.625000 0.500000
vt 0.500000 0.750000
vt 0.500000 0.500000
vt 0.375000 0.750000
vt 0.375000 0.250000
vt 0.375000 0.000000
vt 0.625000 0.250000
vt 0.625000 0.250000
vt 0.625000 0.333333
vt 0.375000 0.333333
vt 0.500000 0.333333
vt 0.500000 0.583333
vt 0.625000 0.500000
vt 0.500000 0.416667
vt 0.500000 0.666667
vt 0.625000 0.416667
vt 0.625000 0.750000
vt 0.208333 0.500000
vt 0.125000 0.750000
vt 0.125000 0.500000
vt 0.208333 0.750000
vt 0.375000 0.833333
vt 0.375000 0.416667
vt 0.500000 1.000000
vt 0.375000 1.000000
vt 0.375000 0.916667
s 0
f 7/1/1 12/2/1 10/3/1
f 2/4/2 16/5/2 13/6/2
f 1/7/3 11/8/3 9/9/3
f 9/9/4 4/10/4 2/4/4
f 10/3/5 6/11/5 8/12/5
f 5/13/6 20/14/6 18/15/6
f 14/16/7 12/2/7 23/17/7
f 23/17/8 20/14/8 22/18/8
f 19/19/9 24/20/9 21/21/9
f 17/22/6 3/23/6 1/7/6
f 24/20/6 22/18/6 21/21/6
f 14/24/2 8/25/2 6/26/2
f 13/6/2 15/27/2 14/24/2
f 16/28/10 3/23/10 21/21/10
f 7/1/1 5/13/1 12/2/1
f 2/4/2 4/10/2 16/5/2
f 1/7/3 3/23/3 11/8/3
f 9/9/4 11/8/4 4/10/4
f 10/3/5 12/2/5 6/11/5
f 5/13/6 7/1/6 20/14/6
f 24/20/7 17/22/7 1/7/7
f 9/9/7 2/4/7 13/29/7
f 24/20/7 1/7/7 9/9/7
f 5/13/7 18/15/7 23/17/7
f 23/17/7 24/20/7 9/9/7
f 9/9/7 13/29/7 14/16/7
f 14/16/7 6/11/7 12/2/7
f 12/2/7 5/13/7 23/17/7
f 23/17/7 9/9/7 14/16/7
f 23/17/8 18/15/8 20/14/8
f 19/19/9 17/22/9 24/20/9
f 17/22/6 19/19/6 3/23/6
f 24/20/6 23/17/6 22/18/6
f 14/24/2 15/27/2 8/25/2
f 13/6/2 16/5/2 15/27/2
f 22/18/10 20/14/10 7/1/10
f 7/1/10 10/30/10 8/31/10
f 7/1/10 8/31/10 15/32/10
f 22/18/10 7/1/10 15/32/10
f 16/28/10 4/10/10 11/8/10
f 22/18/10 15/32/10 16/28/10
f 3/23/10 19/19/10 21/21/10
f 21/21/10 22/18/10 16/28/10
f 16/28/10 11/8/10 3/23/10
