# Blender 4.4.3
# www.blender.org
mtllib arrow.mtl
o Cube
v 1.000000 0.200000 1.000000
v 1.000000 0.200000 -1.000000
v 1.000000 -0.200000 1.000000
v 1.000000 -0.200000 -1.000000
v -1.000000 0.200000 1.000000
v -1.000000 0.200000 -1.000000
v -1.000000 -0.200000 1.000000
v -1.000000 -0.200000 -1.000000
v -0.078133 0.200000 0.000000
v -2.078133 0.199631 0.000000
v -0.078133 -0.200000 0.000000
v -0.456289 -0.200000 1.000000
v -0.741568 -0.200000 1.000000
v -0.741568 0.200000 1.000000
v -0.456289 0.200000 1.000000
v -0.456289 -0.200000 0.793138
v -0.741568 -0.200000 0.793138
v -0.741568 0.200000 0.954246
v -0.456289 0.200000 0.954246
vn -0.0000 -0.0000 1.0000
vn -0.6800 -0.0000 0.7332
vn -0.0000 -0.0000 -1.0000
vn 0.6800 -0.0000 -0.7332
vn -0.0000 -0.3736 0.9276
vn 0.6800 -0.0000 0.7332
vn -0.6800 -0.0000 -0.7332
vn -1.0000 -0.0000 -0.0000
vn 1.0000 -0.0000 -0.0000
vn -0.0000 -1.0000 -0.0000
vn -0.0000 1.0000 -0.0000
vn -0.3476 -0.9377 -0.0000
vn -0.0003 1.0000 -0.0000
vt 0.875000 0.500000
vt 0.791667 0.750000
vt 0.791667 0.500000
vt 0.500000 0.000000
vt 0.625000 0.000000
vt 0.625000 0.250000
vt 0.375000 0.500000
vt 0.125000 0.750000
vt 0.125000 0.500000
vt 0.625000 0.500000
vt 0.500000 0.750000
vt 0.500000 0.500000
vt 0.708333 0.750000
vt 0.375000 0.750000
vt 0.375000 0.000000
vt 0.500000 0.250000
vt 0.375000 0.250000
vt 0.708333 0.500000
vt 0.625000 0.750000
vt 0.875000 0.750000
s 0
usemtl Material
f 5/1/1 13/2/1 14/3/1
f 10/4/2 7/5/2 5/6/2
f 2/7/3 8/8/3 6/9/3
f 1/10/4 11/11/4 9/12/4
f 16/13/5 18/3/5 17/2/5
f 9/12/6 4/14/6 2/7/6
f 8/15/7 10/16/7 6/17/7
f 12/13/8 19/18/8 16/13/8
f 15/18/1 3/19/1 1/10/1
f 13/2/9 18/3/9 14/3/9
f 8/8/10 11/11/10 17/2/10
f 6/17/11 19/18/11 9/12/11
f 8/8/12 7/20/12 10/4/12
f 5/1/1 7/20/1 13/2/1
f 2/7/3 4/14/3 8/8/3
f 1/10/4 3/19/4 11/11/4
f 16/13/5 19/18/5 18/3/5
f 9/12/6 11/11/6 4/14/6
f 12/13/8 15/18/8 19/18/8
f 15/18/1 12/13/1 3/19/1
f 13/2/9 17/2/9 18/3/9
f 13/2/10 7/20/10 8/8/10
f 8/8/10 4/14/10 11/11/10
f 11/11/10 3/19/10 12/13/10
f 11/11/10 12/13/10 16/13/10
f 17/2/10 13/2/10 8/8/10
f 11/11/10 16/13/10 17/2/10
f 9/12/11 2/7/11 6/17/11
f 6/17/13 10/16/13 5/1/13
f 5/1/11 14/3/11 18/3/11
f 19/18/11 15/18/11 1/10/11
f 6/17/11 5/1/11 18/3/11
f 19/18/11 1/10/11 9/12/11
f 6/17/11 18/3/11 19/18/11
