# Blender 4.4.3
# www.blender.org
mtllib custom.mtl
o Cube
v 1.000000 1.000000 -1.000000
v 1.000000 -1.000000 -1.000000
v 1.000000 1.000000 1.000000
v 1.000000 -1.000000 1.000000
v -1.000000 1.000000 -1.000000
v -1.000000 -1.000000 -1.000000
v -1.000000 1.000000 1.000000
v -1.000000 -1.000000 1.000000
vn -0.0000 1.0000 -0.0000
vn -0.0000 -0.0000 1.0000
vn -1.0000 -0.0000 -0.0000
vn -0.0000 -1.0000 -0.0000
vn 1.0000 -0.0000 -0.0000
vn -0.0000 -0.0000 -1.0000
vt 0.875000 0.500000
vt 0.625000 0.750000
vt 0.625000 0.500000
vt 0.375000 1.000000
vt 0.375000 0.750000
vt 0.625000 0.000000
vt 0.375000 0.250000
vt 0.375000 0.000000
vt 0.375000 0.500000
vt 0.125000 0.750000
vt 0.125000 0.500000
vt 0.625000 0.250000
vt 0.875000 0.750000
vt 0.625000 1.000000
s 0
usemtl Material
f 5/1/1 3/2/1 1/3/1
f 3/2/2 8/4/2 4/5/2
f 7/6/3 6/7/3 8/8/3
f 2/9/4 8/10/4 6/11/4
f 1/3/5 4/5/5 2/9/5
f 5/12/6 2/9/6 6/7/6
f 5/1/1 7/13/1 3/2/1
f 3/2/2 7/14/2 8/4/2
f 7/6/3 5/12/3 6/7/3
f 2/9/4 4/5/4 8/10/4
f 1/3/5 3/2/5 4/5/5
f 5/12/6 1/3/6 2/9/6
o Icosphere
v 3.685595 -1.000000 0.000000
v 4.409202 -0.447220 0.525725
v 3.409207 -0.447220 0.850649
v 2.791169 -0.447216 0.000000
v 3.409207 -0.447220 -0.850649
v 4.409202 -0.447220 -0.525725
v 3.961983 0.447220 0.850649
v 2.961987 0.447220 0.525725
v 2.961987 0.447220 -0.525725
v 3.961983 0.447220 -0.850649
v 4.580021 0.447216 0.000000
v 3.685595 1.000000 0.000000
v 3.523139 -0.850654 0.499995
v 4.110918 -0.850654 0.309011
v 3.948464 -0.525738 0.809012
v 4.536242 -0.525736 0.000000
v 4.110918 -0.850654 -0.309011
v 3.159865 -0.850652 0.000000
v 2.997406 -0.525736 0.499997
v 3.523139 -0.850654 -0.499995
v 2.997406 -0.525736 -0.499997
v 3.948464 -0.525738 -0.809012
v 4.636652 0.000000 0.309013
v 4.636652 0.000000 -0.309013
v 3.685595 0.000000 1.000000
v 4.273380 0.000000 0.809017
v 2.734537 0.000000 0.309013
v 3.097809 0.000000 0.809017
v 3.097809 0.000000 -0.809017
v 2.734537 0.000000 -0.309013
v 4.273380 0.000000 -0.809017
v 3.685595 0.000000 -1.000000
v 4.373784 0.525736 0.499997
v 3.422726 0.525738 0.809012
v 2.834947 0.525736 0.000000
v 3.422726 0.525738 -0.809012
v 4.373784 0.525736 -0.499997
v 3.848050 0.850654 0.499995
v 4.211325 0.850652 0.000000
v 3.260272 0.850654 0.309011
v 3.260272 0.850654 -0.309011
v 3.848050 0.850654 -0.499995
vn 0.1024 -0.9435 0.3151
vn 0.7002 -0.6617 0.2680
vn -0.2680 -0.9435 0.1947
vn -0.2680 -0.9435 -0.1947
vn 0.1024 -0.9435 -0.3151
vn 0.9050 -0.3304 0.2680
vn 0.0247 -0.3304 0.9435
vn -0.8897 -0.3304 0.3151
vn -0.5746 -0.3304 -0.7488
vn 0.5346 -0.3304 -0.7779
vn 0.8026 -0.1256 0.5831
vn -0.3066 -0.1256 0.9435
vn -0.9921 -0.1256 -0.0000
vn -0.3066 -0.1256 -0.9435
vn 0.8026 -0.1256 -0.5831
vn 0.4089 0.6617 0.6284
vn -0.4713 0.6617 0.5831
vn -0.7002 0.6617 -0.2680
vn 0.0385 0.6617 -0.7488
vn 0.7240 0.6617 -0.1947
vn 0.2680 0.9435 -0.1947
vn 0.4911 0.7947 -0.3568
vn 0.4089 0.6617 -0.6284
vn -0.1024 0.9435 -0.3151
vn -0.1876 0.7947 -0.5773
vn -0.4713 0.6617 -0.5831
vn -0.3313 0.9435 -0.0000
vn -0.6071 0.7947 -0.0000
vn -0.7002 0.6617 0.2680
vn -0.1024 0.9435 0.3151
vn -0.1876 0.7947 0.5773
vn 0.0385 0.6617 0.7488
vn 0.2680 0.9435 0.1947
vn 0.4911 0.7947 0.3568
vn 0.7240 0.6617 0.1947
vn 0.8897 0.3304 -0.3151
vn 0.7947 0.1876 -0.5773
vn 0.5746 0.3304 -0.7488
vn -0.0247 0.3304 -0.9435
vn -0.3035 0.1876 -0.9342
vn -0.5346 0.3304 -0.7779
vn -0.9050 0.3304 -0.2680
vn -0.9822 0.1876 -0.0000
vn -0.9050 0.3304 0.2680
vn -0.5346 0.3304 0.7779
vn -0.3035 0.1876 0.9342
vn -0.0247 0.3304 0.9435
vn 0.5746 0.3304 0.7488
vn 0.7947 0.1876 0.5773
vn 0.8897 0.3304 0.3151
vn 0.3066 0.1256 -0.9435
vn 0.3035 -0.1876 -0.9342
vn 0.0247 -0.3304 -0.9435
vn -0.8026 0.1256 -0.5831
vn -0.7947 -0.1876 -0.5773
vn -0.8897 -0.3304 -0.3151
vn -0.8026 0.1256 0.5831
vn -0.7947 -0.1876 0.5773
vn -0.5746 -0.3304 0.7488
vn 0.3066 0.1256 0.9435
vn 0.3035 -0.1876 0.9342
vn 0.5346 -0.3304 0.7779
vn 0.9921 0.1256 -0.0000
vn 0.9822 -0.1876 -0.0000
vn 0.9050 -0.3304 -0.2680
vn 0.4713 -0.6617 -0.5831
vn 0.1876 -0.7947 -0.5773
vn -0.0385 -0.6617 -0.7488
vn -0.4089 -0.6617 -0.6284
vn -0.4911 -0.7947 -0.3568
vn -0.7240 -0.6617 -0.1947
vn -0.7240 -0.6617 0.1947
vn -0.4911 -0.7947 0.3568
vn -0.4089 -0.6617 0.6284
vn 0.7002 -0.6617 -0.2680
vn 0.6071 -0.7947 -0.0000
vn 0.3313 -0.9435 -0.0000
vn -0.0385 -0.6617 0.7488
vn 0.1876 -0.7947 0.5773
vn 0.4713 -0.6617 0.5831
vt 0.181819 0.000000
vt 0.227273 0.078731
vt 0.136365 0.078731
vt 0.272728 0.157461
vt 0.318182 0.078731
vt 0.363637 0.157461
vt 0.909091 0.000000
vt 0.954545 0.078731
vt 0.863636 0.078731
vt 0.727273 0.000000
vt 0.772727 0.078731
vt 0.681818 0.078731
vt 0.545455 0.000000
vt 0.590909 0.078731
vt 0.500000 0.078731
vt 0.318182 0.236191
vt 0.090910 0.157461
vt 0.181819 0.157461
vt 0.136365 0.236191
vt 0.818182 0.157461
vt 0.909091 0.157461
vt 0.863636 0.236191
vt 0.636364 0.157461
vt 0.727273 0.157461
vt 0.681818 0.236191
vt 0.454546 0.157461
vt 0.545455 0.157461
vt 0.500000 0.236191
vt 0.227273 0.236191
vt 0.045455 0.236191
vt 0.772727 0.236191
vt 0.590909 0.236191
vt 0.409092 0.236191
vt 0.181819 0.314921
vt 0.272728 0.314921
vt 0.227273 0.393651
vt 0.000000 0.314921
vt 0.090910 0.314921
vt 0.045455 0.393651
vt 0.727273 0.314921
vt 0.818182 0.314921
vt 0.772727 0.393651
vt 0.545455 0.314921
vt 0.636364 0.314921
vt 0.590909 0.393651
vt 0.363637 0.314921
vt 0.454546 0.314921
vt 0.409092 0.393651
vt 0.500000 0.393651
vt 0.454546 0.472382
vt 0.681818 0.393651
vt 0.636364 0.472382
vt 0.863636 0.393651
vt 0.818182 0.472382
vt 0.909091 0.314921
vt 0.136365 0.393651
vt 0.090910 0.472382
vt 0.318182 0.393651
vt 0.272728 0.472382
vt 0.954545 0.236191
vt 1.000000 0.157461
vt 0.409092 0.078731
vt 0.363637 0.000000
s 0
f 9/15/7 22/16/7 21/17/7
f 10/18/8 22/19/8 24/20/8
f 9/21/9 21/22/9 26/23/9
f 9/24/10 26/25/10 28/26/10
f 9/27/11 28/28/11 25/29/11
f 10/18/12 24/20/12 31/30/12
f 11/31/13 23/32/13 33/33/13
f 12/34/14 27/35/14 35/36/14
f 13/37/15 29/38/15 37/39/15
f 14/40/16 30/41/16 39/42/16
f 10/18/17 31/30/17 34/43/17
f 11/31/18 33/33/18 36/44/18
f 12/34/19 35/36/19 38/45/19
f 13/37/20 37/39/20 40/46/20
f 14/40/21 39/42/21 32/47/21
f 15/48/22 41/49/22 46/50/22
f 16/51/23 42/52/23 48/53/23
f 17/54/24 43/55/24 49/56/24
f 18/57/25 44/58/25 50/59/25
f 19/60/26 45/61/26 47/62/26
f 47/62/27 50/63/27 20/64/27
f 47/62/28 45/61/28 50/63/28
f 45/61/29 18/57/29 50/63/29
f 50/59/30 49/65/30 20/66/30
f 50/59/31 44/58/31 49/65/31
f 44/58/32 17/54/32 49/65/32
f 49/56/33 48/67/33 20/68/33
f 49/56/34 43/55/34 48/67/34
f 43/55/35 16/69/35 48/67/35
f 48/53/36 46/70/36 20/71/36
f 48/53/37 42/52/37 46/70/37
f 42/52/38 15/48/38 46/70/38
f 46/50/39 47/72/39 20/73/39
f 46/50/40 41/49/40 47/72/40
f 41/49/41 19/60/41 47/72/41
f 32/47/42 45/61/42 19/60/42
f 32/47/43 39/42/43 45/61/43
f 39/42/44 18/57/44 45/61/44
f 40/46/45 44/58/45 18/57/45
f 40/46/46 37/39/46 44/58/46
f 37/39/47 17/54/47 44/58/47
f 38/45/48 43/55/48 17/54/48
f 38/45/49 35/36/49 43/55/49
f 35/36/50 16/69/50 43/55/50
f 36/44/51 42/52/51 16/51/51
f 36/44/52 33/33/52 42/52/52
f 33/33/53 15/48/53 42/52/53
f 34/43/54 41/49/54 15/48/54
f 34/43/55 31/30/55 41/49/55
f 31/30/56 19/60/56 41/49/56
f 39/42/57 40/46/57 18/57/57
f 39/42/58 30/41/58 40/46/58
f 30/41/59 13/37/59 40/46/59
f 37/39/60 38/45/60 17/54/60
f 37/39/61 29/38/61 38/45/61
f 29/38/62 12/34/62 38/45/62
f 35/36/63 36/74/63 16/69/63
f 35/36/64 27/35/64 36/74/64
f 27/35/65 11/75/65 36/74/65
f 33/33/66 34/43/66 15/48/66
f 33/33/67 23/32/67 34/43/67
f 23/32/68 10/18/68 34/43/68
f 31/30/69 32/47/69 19/60/69
f 31/30/70 24/20/70 32/47/70
f 24/20/71 14/40/71 32/47/71
f 25/29/72 30/41/72 14/40/72
f 25/29/73 28/28/73 30/41/73
f 28/28/74 13/37/74 30/41/74
f 28/26/75 29/38/75 13/37/75
f 28/26/76 26/25/76 29/38/76
f 26/25/77 12/34/77 29/38/77
f 26/23/78 27/35/78 12/34/78
f 26/23/79 21/22/79 27/35/79
f 21/22/80 11/75/80 27/35/80
f 24/20/81 25/76/81 14/40/81
f 24/20/82 22/19/82 25/76/82
f 22/19/83 9/77/83 25/76/83
f 21/17/84 23/32/84 11/31/84
f 21/17/85 22/16/85 23/32/85
f 22/16/86 10/18/86 23/32/86
o Cone
v 0.000000 -1.000000 -4.772830
v 0.195090 -1.000000 -4.753615
v 0.382683 -1.000000 -4.696710
v 0.555570 -1.000000 -4.604300
v 0.707107 -1.000000 -4.479937
v 0.831470 -1.000000 -4.328400
v 0.923880 -1.000000 -4.155513
v 0.980785 -1.000000 -3.967920
v 1.000000 -1.000000 -3.772830
v 0.980785 -1.000000 -3.577740
v 0.923880 -1.000000 -3.390146
v 0.831470 -1.000000 -3.217260
v 0.707107 -1.000000 -3.065723
v 0.555570 -1.000000 -2.941360
v 0.382683 -1.000000 -2.848950
v 0.195090 -1.000000 -2.792045
v 0.000000 -1.000000 -2.772830
v -0.195090 -1.000000 -2.792045
v -0.382683 -1.000000 -2.848950
v -0.555570 -1.000000 -2.941360
v -0.707107 -1.000000 -3.065723
v -0.831470 -1.000000 -3.217260
v -0.923880 -1.000000 -3.390146
v -0.980785 -1.000000 -3.577740
v -1.000000 -1.000000 -3.772830
v -0.980785 -1.000000 -3.967920
v -0.923880 -1.000000 -4.155513
v -0.831470 -1.000000 -4.328400
v -0.707107 -1.000000 -4.479937
v -0.555570 -1.000000 -4.604300
v -0.382683 -1.000000 -4.696710
v -0.195090 -1.000000 -4.753615
v 0.000000 1.000000 -3.772830
vn 0.0878 0.4455 -0.8910
vn 0.2599 0.4455 -0.8567
vn 0.4220 0.4455 -0.7896
vn 0.5680 0.4455 -0.6921
vn 0.6921 0.4455 -0.5680
vn 0.7896 0.4455 -0.4220
vn 0.8567 0.4455 -0.2599
vn 0.8910 0.4455 -0.0878
vn 0.8910 0.4455 0.0878
vn 0.8567 0.4455 0.2599
vn 0.7896 0.4455 0.4220
vn 0.6921 0.4455 0.5680
vn 0.5680 0.4455 0.6921
vn 0.4220 0.4455 0.7896
vn 0.2599 0.4455 0.8567
vn 0.0878 0.4455 0.8910
vn -0.0878 0.4455 0.8910
vn -0.2599 0.4455 0.8567
vn -0.4220 0.4455 0.7896
vn -0.5680 0.4455 0.6921
vn -0.6921 0.4455 0.5680
vn -0.7896 0.4455 0.4220
vn -0.8567 0.4455 0.2599
vn -0.8910 0.4455 0.0878
vn -0.8910 0.4455 -0.0878
vn -0.8567 0.4455 -0.2599
vn -0.7896 0.4455 -0.4220
vn -0.6921 0.4455 -0.5680
vn -0.5680 0.4455 -0.6921
vn -0.4220 0.4455 -0.7896
vn -0.0000 -1.0000 -0.0000
vn -0.2599 0.4455 -0.8567
vn -0.0878 0.4455 -0.8910
vt 0.250000 0.490000
vt 0.250000 0.250000
vt 0.296822 0.485388
vt 0.341844 0.471731
vt 0.383337 0.449553
vt 0.419706 0.419706
vt 0.449553 0.383337
vt 0.471731 0.341844
vt 0.485388 0.296822
vt 0.490000 0.250000
vt 0.485388 0.203178
vt 0.471731 0.158156
vt 0.449553 0.116663
vt 0.419706 0.080294
vt 0.383337 0.050447
vt 0.341844 0.028269
vt 0.296822 0.014612
vt 0.250000 0.010000
vt 0.203178 0.014612
vt 0.158156 0.028269
vt 0.116663 0.050447
vt 0.080294 0.080294
vt 0.050447 0.116663
vt 0.028269 0.158156
vt 0.014612 0.203178
vt 0.010000 0.250000
vt 0.014612 0.296822
vt 0.028269 0.341844
vt 0.050447 0.383337
vt 0.080294 0.419706
vt 0.116663 0.449553
vt 0.158156 0.471731
vt 0.796822 0.014612
vt 0.514612 0.203178
vt 0.703178 0.485388
vt 0.203178 0.485388
vt 0.750000 0.490000
vt 0.796822 0.485388
vt 0.841844 0.471731
vt 0.883337 0.449553
vt 0.919706 0.419706
vt 0.949553 0.383337
vt 0.971731 0.341844
vt 0.985388 0.296822
vt 0.990000 0.250000
vt 0.985388 0.203178
vt 0.971731 0.158156
vt 0.949553 0.116663
vt 0.919706 0.080294
vt 0.883337 0.050447
vt 0.841844 0.028269
vt 0.750000 0.010000
vt 0.703178 0.014612
vt 0.658156 0.028269
vt 0.616663 0.050447
vt 0.580294 0.080294
vt 0.550447 0.116663
vt 0.528269 0.158156
vt 0.510000 0.250000
vt 0.514612 0.296822
vt 0.528269 0.341844
vt 0.550447 0.383337
vt 0.580294 0.419706
vt 0.616663 0.449553
vt 0.658156 0.471731
s 0
f 51/78/87 83/79/87 52/80/87
f 52/80/88 83/79/88 53/81/88
f 53/81/89 83/79/89 54/82/89
f 54/82/90 83/79/90 55/83/90
f 55/83/91 83/79/91 56/84/91
f 56/84/92 83/79/92 57/85/92
f 57/85/93 83/79/93 58/86/93
f 58/86/94 83/79/94 59/87/94
f 59/87/95 83/79/95 60/88/95
f 60/88/96 83/79/96 61/89/96
f 61/89/97 83/79/97 62/90/97
f 62/90/98 83/79/98 63/91/98
f 63/91/99 83/79/99 64/92/99
f 64/92/100 83/79/100 65/93/100
f 65/93/101 83/79/101 66/94/101
f 66/94/102 83/79/102 67/95/102
f 67/95/103 83/79/103 68/96/103
f 68/96/104 83/79/104 69/97/104
f 69/97/105 83/79/105 70/98/105
f 70/98/106 83/79/106 71/99/106
f 71/99/107 83/79/107 72/100/107
f 72/100/108 83/79/108 73/101/108
f 73/101/109 83/79/109 74/102/109
f 74/102/110 83/79/110 75/103/110
f 75/103/111 83/79/111 76/104/111
f 76/104/112 83/79/112 77/105/112
f 77/105/113 83/79/113 78/106/113
f 78/106/114 83/79/114 79/107/114
f 79/107/115 83/79/115 80/108/115
f 80/108/116 83/79/116 81/109/116
f 66/110/117 74/111/117 82/112/117
f 81/109/118 83/79/118 82/113/118
f 82/113/119 83/79/119 51/78/119
f 82/112/117 51/114/117 52/115/117
f 52/115/117 53/116/117 54/117/117
f 54/117/117 55/118/117 56/119/117
f 56/119/117 57/120/117 58/121/117
f 58/121/117 59/122/117 60/123/117
f 60/123/117 61/124/117 62/125/117
f 62/125/117 63/126/117 64/127/117
f 64/127/117 65/128/117 66/110/117
f 66/110/117 67/129/117 68/130/117
f 68/130/117 69/131/117 70/132/117
f 70/132/117 71/133/117 72/134/117
f 72/134/117 73/135/117 74/111/117
f 74/111/117 75/136/117 76/137/117
f 76/137/117 77/138/117 78/139/117
f 78/139/117 79/140/117 80/141/117
f 80/141/117 81/142/117 82/112/117
f 82/112/117 52/115/117 54/117/117
f 54/117/117 56/119/117 58/121/117
f 58/121/117 60/123/117 62/125/117
f 62/125/117 64/127/117 66/110/117
f 66/110/117 68/130/117 70/132/117
f 70/132/117 72/134/117 74/111/117
f 74/111/117 76/137/117 78/139/117
f 78/139/117 80/141/117 82/112/117
f 82/112/117 54/117/117 58/121/117
f 58/121/117 62/125/117 66/110/117
f 66/110/117 70/132/117 74/111/117
f 74/111/117 78/139/117 82/112/117
f 82/112/117 58/121/117 66/110/117
