# Blender 4.4.3
# www.blender.org
o Cube
v 2.000000 1.000000 -1.000000
v 2.000000 -1.000000 -1.000000
v 2.000000 1.000000 1.000000
v 2.000000 -1.000000 1.000000
v -2.000000 0.302540 -0.302540
v -2.000000 -0.302540 -0.302540
v -2.000000 0.302540 0.302540
v -2.000000 -0.302540 0.302540
vn -0.1718 0.9851 -0.0000
vn -0.1718 -0.0000 0.9851
vn -1.0000 -0.0000 -0.0000
vn -0.1718 -0.9851 -0.0000
vn 1.0000 -0.0000 -0.0000
vn -0.1718 -0.0000 -0.9851
vt 0.875000 0.500000
vt 0.625000 0.750000
vt 0.625000 0.500000
vt 0.375000 1.000000
vt 0.375000 0.750000
vt 0.625000 0.000000
vt 0.375000 0.250000
vt 0.375000 0.000000
vt 0.375000 0.500000
vt 0.125000 0.750000
vt 0.125000 0.500000
vt 0.625000 0.250000
vt 0.875000 0.750000
vt 0.625000 1.000000
s 0
f 5/1/1 3/2/1 1/3/1
f 3/2/2 8/4/2 4/5/2
f 7/6/3 6/7/3 8/8/3
f 2/9/4 8/10/4 6/11/4
f 1/3/5 4/5/5 2/9/5
f 5/12/6 2/9/6 6/7/6
f 5/1/1 7/13/1 3/2/1
f 3/2/2 7/14/2 8/4/2
f 7/6/3 5/12/3 6/7/3
f 2/9/4 4/5/4 8/10/4
f 1/3/5 3/2/5 4/5/5
f 5/12/6 1/3/6 2/9/6
o Cube.001
v 2.000000 3.508210 -1.000000
v 2.000000 3.209355 -1.000000
v 2.000000 3.508210 1.000000
v 2.000000 3.209355 1.000000
v -2.000000 3.508210 -1.000000
v -2.000000 1.508210 -1.000000
v -2.000000 3.508210 1.000000
v -2.000000 1.508210 1.000000
vn -0.0000 1.0000 -0.0000
vn -0.0000 -0.0000 1.0000
vn -1.0000 -0.0000 -0.0000
vn 0.3914 -0.9202 -0.0000
vn 1.0000 -0.0000 -0.0000
vn -0.0000 -0.0000 -1.0000
vt 0.875000 0.500000
vt 0.625000 0.750000
vt 0.625000 0.500000
vt 0.375000 0.750000
vt 0.625000 1.000000
vt 0.375000 1.000000
vt 0.625000 0.000000
vt 0.375000 0.250000
vt 0.375000 0.000000
vt 0.375000 0.500000
vt 0.125000 0.750000
vt 0.125000 0.500000
vt 0.625000 0.250000
vt 0.875000 0.750000
s 0
f 13/15/7 11/16/7 9/17/7
f 12/18/8 15/19/8 16/20/8
f 15/21/9 14/22/9 16/23/9
f 10/24/10 16/25/10 14/26/10
f 9/17/11 12/18/11 10/24/11
f 13/27/12 10/24/12 14/22/12
f 13/15/7 15/28/7 11/16/7
f 12/18/8 11/16/8 15/19/8
f 15/21/9 13/27/9 14/22/9
f 10/24/10 12/18/10 16/25/10
f 9/17/11 11/16/11 12/18/11
f 13/27/12 9/17/12 10/24/12
o Cube.002
v 2.000000 -2.122080 -1.000000
v 2.000000 -4.122080 -1.000000
v 2.000000 -2.122080 -0.646840
v 2.000000 -4.122080 -0.646840
v -2.000000 -2.122080 -1.000000
v -2.000000 -4.122080 -1.000000
v -2.000000 -2.122080 1.000000
v -2.000000 -4.122080 1.000000
vn -0.0000 1.0000 -0.0000
vn 0.3807 -0.0000 0.9247
vn -1.0000 -0.0000 -0.0000
vn -0.0000 -1.0000 -0.0000
vn 1.0000 -0.0000 -0.0000
vn -0.0000 -0.0000 -1.0000
vt 0.875000 0.500000
vt 0.625000 0.750000
vt 0.625000 0.500000
vt 0.375000 1.000000
vt 0.375000 0.750000
vt 0.625000 0.000000
vt 0.375000 0.250000
vt 0.375000 0.000000
vt 0.125000 0.500000
vt 0.125000 0.750000
vt 0.375000 0.500000
vt 0.625000 0.250000
vt 0.875000 0.750000
vt 0.625000 1.000000
s 0
f 21/29/13 19/30/13 17/31/13
f 19/30/14 24/32/14 20/33/14
f 23/34/15 22/35/15 24/36/15
f 22/37/16 20/33/16 24/38/16
f 17/31/17 20/33/17 18/39/17
f 21/40/18 18/39/18 22/35/18
f 21/29/13 23/41/13 19/30/13
f 19/30/14 23/42/14 24/32/14
f 23/34/15 21/40/15 22/35/15
f 22/37/16 18/39/16 20/33/16
f 17/31/17 19/30/17 20/33/17
f 21/40/18 17/31/18 18/39/18
